<?xml version="1.0" encoding="utf-8"?>
<!-- Generator: Adobe Illustrator 22.0.0, SVG Export Plug-In . SVG Version: 6.00 Build 0)  -->
<svg version="1.1" id="svg8" inkscape:version="0.92.1 r15371" sodipodi:docname="execution problems.svg" xmlns:cc="http://creativecommons.org/ns#" xmlns:dc="http://purl.org/dc/elements/1.1/" xmlns:inkscape="http://www.inkscape.org/namespaces/inkscape" xmlns:rdf="http://www.w3.org/1999/02/22-rdf-syntax-ns#" xmlns:sodipodi="http://sodipodi.sourceforge.net/DTD/sodipodi-0.dtd" xmlns:svg="http://www.w3.org/2000/svg" xmlns="http://www.w3.org/2000/svg" xmlns:xlink="http://www.w3.org/1999/xlink" x="0px" y="0px" viewBox="0 0 2132.5 278.7" style="enable-background:new 0 0 2132.5 278.7;" xml:space="preserve">
	<style type="text/css">
	.st0{fill:#FFFFFF;}
	.st1{fill:#4C0F1F;}
</style>
	<path class="st0" d="M288.3,76.3c12.5,17.3,20.7,38.3,22.6,60.9L371.3,44c7.9-12.1,4.4-28.2-7.6-36.2c-11.9-7.8-28.1-4.3-36,7.7
	L288.3,76.3z M115.8,115.5l-25.3-39l-0.1-0.1L51,15.6C43.1,3.7,26.9,0.2,14.9,7.9C3,15.8-0.5,32,7.3,44.1l60.5,93.2l40.9,63l0,0
	c29,44.6,88.5,57.2,133.1,28.2c44.5-29,57.2-88.6,28.2-133.3C241,50.6,181.5,38,136.9,67c-5.3,3.4-10,7.3-14.4,11.6l4.9,7.5l24.7,38
	c3.3-5.3,7.8-9.8,13.2-13.4c20.6-13.3,47.9-7.5,61.2,12.9c13.3,20.6,7.4,48-13,61.3s-47.8,7.4-61-13.1l-21.2-32.5L115.8,115.5z" />
	<g>
		<path class="st0" d="M1128.3,102.7c0,3.7-1,7.3-2.9,10.3c-1.9,3.3-3.6,5.2-4.7,6.1l-2,1.8l-2.4-1.1c-2.8-1.3-6.2-2.5-10.1-3.7
		c-4.4-1.1-8.8-1.7-13.4-1.7c-17.6,0-25.8,8.8-25.8,27.6v78h-37v-86.2c0-16.7,5.3-29.9,15.8-39.4c10.3-9.2,24.7-13.8,42.6-13.8
		c11.4,0,20.5,1.5,27.7,4.7C1124.2,88.9,1128.3,94.8,1128.3,102.7z" />
		<path class="st0" d="M873.8,177.5c0,14-5.7,25.4-16.9,33.7c-10.8,8.1-26.2,12.2-46,12.2c-9.1,0-17.7-0.7-25.5-2.1l0,0l0,0
		c-7.8-1.5-14.5-3.1-20-4.9c-5.1-1.7-9.7-3.5-13.8-5.4h-0.1h-0.1c-4-2.1-6.2-3.3-7.5-4.5l-2.4-2.1l1.6-2.8l10.9-19.3l2.2-4l3.6,2.7
		c1.1,0.8,4.2,2.3,5.6,2.9l0.3,0.1c2.8,1.1,6.4,2.5,10.6,3.8l0,0l0,0c4.5,1.4,9.6,2.7,14.8,3.6c5.5,1,11.5,1.5,18.3,1.5
		c8.2,0,15-1.1,20.1-3.3c4-1.7,5.8-4.2,5.8-8c0-3.5-1.1-5.9-3.5-7.5h-0.1h-0.1c-2.1-1.5-6.7-3.4-17.3-4.6l-19.9-2.3
		c-7.7-0.8-13.9-2-19.4-3.9c-6.3-2-11.5-4.5-15.8-7.7h-0.1l0,0c-4.5-3.5-7.9-7.7-10.5-12.8c-2.6-5.3-3.9-11.2-3.9-18
		c0-6,1.2-11.7,3.5-17.1c2.3-5.2,6-10.1,11.2-14.4l0,0l0,0c5.1-4.1,11.4-7.2,19.3-9.4c7.8-2.2,17.2-3.4,27.9-3.4
		c18,0,32.4,2.1,42.6,6.2c11.3,4.5,17,10.9,17,19c0,2.6-0.5,5-1.5,7c-0.8,1.7-1.7,3-2.5,4.2l-0.3,0.5l-0.2,0.2l-0.2,0.2
		c-1.2,1.3-2.2,2.3-3.3,3.3l-0.2,0.2l-0.3,0.2c-0.3,0.2-0.5,0.3-0.8,0.5c-0.8,0.5-1.5,1-2.2,1.2l-2.5,1l-1.9-1.9
		c-0.2-0.2-1.1-1.1-3.6-2.6c-2.7-1.7-5.5-3-8.5-4.1c-3.9-1.4-8.5-2.6-13.4-3.5c-5.8-1.2-11.7-1.7-18-1.7c-9.1,0-16,1.2-20.3,3.5
		c-3.6,1.9-5.3,4.5-5.3,8.1c0,2.9,1.2,5,3.7,6.7c3.4,1.9,8.3,3.3,14.5,4.1l26.1,3.4c14.6,1.9,26.3,6,34.7,12.3
		C869.3,155.1,873.8,164.9,873.8,177.5z" />
		<path class="st0" d="M1012.4,108.7c-2.5-5.3-6.3-10.2-11.5-14.7l-0.1-0.1l-0.1-0.1c-5.5-4.2-11.6-7.5-18.3-9.8l0,0l0,0
		c-7.3-2.4-15.6-3.6-24.6-3.6c-10.8,0-20.3,1.7-29.2,5.3c-8.7,3.5-16.5,8.5-23.1,14.8c-6.5,6.4-11.6,14.1-15.4,23l0,0l0,0
		c-3.6,9.1-5.4,19-5.4,29.4c0,11,1.9,21.1,5.6,29.9c3.7,8.7,8.9,16.1,15.4,22.2c6.5,6.2,14.3,10.9,23.1,13.9c8.6,3,18,4.5,27.9,4.5
		c6.8,0,13.3-0.5,19.4-1.5h0.1h0.1c5.8-1.1,10.8-2.4,15.2-3.7h0.1h0.1c5-1.6,8.7-3.1,11.5-4.7c2.8-1.5,5-2.7,6.6-3.8l3.1-2l-1.7-3.2
		l-10.8-20.6l-1.8-3.3l-3.5,1.6c-0.5,0.2-1,0.5-1.6,0.8c-0.9,0.5-1.9,1-3.1,1.5l-0.1,0.1l-0.1,0.1c-1.7,0.9-3.8,1.8-7,3
		c-2.9,0.9-6.2,1.8-9.3,2.3c-3.6,0.7-7.5,1-11.5,1c-12.2,0-21.5-2.5-27.6-7.3l0,0l0,0c-5-3.8-8.3-8.2-10-13.5c1.5,0.1,3,0.1,4.4,0.1
		c2.9,0.2,6.1,0.2,9.5,0.2c15,0,27-1,37-3.1s17.9-4.9,23.9-8.5l0,0l0,0c6.3-4,10.6-8.7,13.2-14.3l0,0l0,0c2.3-5.4,3.5-11.3,3.5-17.8
		C1016.3,120.1,1015,114.1,1012.4,108.7z M978.9,132.1l-0.1,0.1l-0.1,0.1c-0.5,1.4-2.1,2.9-4.5,4.4c-3.3,1.7-7.4,3.1-12.3,4.1
		c-6.2,1.1-13.5,1.7-21.9,1.7h-10.6c-2.2,0-4.5-0.1-6.9-0.2c0.4-3.2,1.1-6.3,2.2-9.5c1.5-4.2,3.8-8,6.6-11.3c3.5-3.6,7-6.1,10.8-7.7
		h0.1h0.1c4.2-2,9-3,14.8-3c7.1,0,12.6,1.4,17,4.3h0.1h0.1c4,2.4,5.9,5.9,5.9,11C980.1,128.5,979.7,130.4,978.9,132.1z" />
		<path class="st0" d="M579.7,152.3c0,10.4-1.7,19.7-5.3,28.5c-3.4,8.4-8.2,15.7-14.3,21.8c-0.3,0.4-0.7,0.7-1,1
		c-6.1,6-13.8,11-22.8,14.8l0,0l0,0c-4.9,1.9-9.9,3.3-15.2,4.2c-0.4,0.1-0.7,0.1-1.1,0.2c-4.1,0.6-8.4,0.9-12.9,0.9h-0.7
		c-4.5,0-8.8-0.3-12.9-0.9c-0.3,0-0.7-0.1-1.1-0.2c-5.3-0.9-10.4-2.3-15.2-4.2l0,0l0,0c-9-3.8-16.7-8.8-22.9-14.8
		c-0.3-0.3-0.6-0.6-0.9-0.9c-5.6-5.9-10.1-13.3-13.7-22.7l0,0l0,0c-3.5-9.6-5.2-20.6-5.2-33.7V41.8c0-6,1.9-10.5,5.6-13.2
		c3.4-2.8,8-4.3,13.8-4.3c3.2,0,6.5,0.4,9.5,1.2h0.2l0.1,0.1c0.9,0.3,1.8,0.6,2.5,0.8c1.4,0.5,2.4,0.8,3.2,1.2l2,1.1
		c0,0,0.1,28.9,0.1,59.1c0,23,0,46.8-0.1,59.4c-0.1,6.8,0.6,11,1.4,14.3v0.1c0.4,1.7,0.8,3.3,1.4,4.8c0.1,0.4,0.2,0.8,0.3,1.2
		c0.5,1.8,1.9,4.3,3.4,6.4c0,0,0,0.1,0.1,0.1c1,1.5,2.1,2.9,3.3,4.2c0.1,0.1,0.2,0.2,0.2,0.3c0.6,0.6,1.2,1.2,1.9,1.8
		c2.6,2.5,5.3,4.6,8.7,5.9h0.1h0.1c4.3,1.9,9.1,2.9,14.2,2.9h0.3c5.2,0,9.8-1,14.1-2.9c4-1.8,7.9-4.5,11.1-7.8
		c3.2-3.4,5.5-7.2,7.1-11.6v-0.1l0,0c1.7-4.5,2.5-9.3,2.5-15.1c0-5.5-0.9-10.6-2.5-15.1v-0.1l0,0c-1.6-4.6-3.8-8.3-7.1-11.6
		l-0.1-0.1c-3-3.2-6.7-5.8-11-7.8c-4.3-1.9-9-2.8-14.1-2.9h-0.3c-5.3,0-10.2,1-14.5,2.9c-3.4,1.5-6.4,3.5-9.1,6.1V87l0,0l0.1-0.1
		c7.1-3.5,15-5.6,23.7-6c1.3-0.1,2.5-0.1,3.8-0.1c10.1,0,19,1.7,27.5,5.3c1.4,0.6,2.8,1.3,4.2,2c6.7,3.4,12.6,7.7,17.6,12.9
		c6.3,6.4,11.2,14,14.6,22.6c2.3,5.6,3.8,11.6,4.6,17.9C579.5,145,579.7,148.6,579.7,152.3z" />
		<path class="st0" d="M728.5,88.4c0,0-7.7-4.3-18.5-4.3c-10.6,0-18.5,6.1-18.6,14.7v60.4c-0.2,10-2.6,17.6-7.1,22.5
		c-4.7,5.3-11.9,7.8-21.8,7.8c-10,0-17.2-2.5-22-7.8c-4.4-4.8-6.8-12-7.1-21.4c0-0.8,0-1.6,0-2.4V88.4c0,0-7.5-4.3-18.3-4.3
		c-10.6,0-18.5,6.1-18.6,14.7v65.6c0,9.5,1.6,17.9,4.8,24.9l0,0l0,0c3.6,7.7,8.1,13.9,13.7,18.8l0.1,0.1c6.3,5.4,13.2,9.2,21.1,11.5
		c7.9,2.6,16.7,3.9,26.4,3.9c9.6,0,18.2-1.3,26.4-3.9c7.9-2.5,14.9-6.3,21-11.4l0.1-0.1c6.1-5.3,10.7-11.7,13.6-19
		c3.3-7.4,4.9-15.8,4.9-24.9L728.5,88.4z" />
	</g>
	<g>
		<g>
			<path class="st1" d="M1288.6,124.1c-3.6-8.8-8.7-16.4-15-22.8c-6.4-6.3-14-11.3-22.5-14.9c-8.6-3.6-18.1-5.4-28.3-5.4
			c-10.9,0-21,1.7-30.1,5.1c-9.2,3.4-17.1,8.5-23.7,15.1c-6.5,6.6-11.6,14.8-15.2,24.3c-3.5,9.5-5.3,20.5-5.3,32.8v112.4h38.6v-59.2
			c3,2.3,6.4,4.4,10.1,6.2c8,4,17.3,6,27.6,6c9.8,0,19.1-1.8,27.4-5.3c8.4-3.5,15.8-8.5,21.9-14.8c6.2-6.3,11.1-13.9,14.6-22.6
			c3.5-8.7,5.3-18.3,5.3-28.6C1294,142.4,1292.2,132.8,1288.6,124.1z M1220.8,116.9c5,0,9.6,0.9,13.7,2.7c4.1,1.8,7.7,4.3,10.7,7.4
			c2.9,3.1,5.2,6.8,6.8,11.1c1.6,4.4,2.4,9.1,2.4,14.2c0,5.2-0.8,10.1-2.4,14.6c-1.6,4.4-3.9,8.2-6.9,11.4c-3,3.2-6.5,5.7-10.7,7.5
			c-4.1,1.8-8.7,2.7-13.7,2.7c-5.1,0-9.8-0.9-13.9-2.7s-7.6-4.3-10.5-7.5c-2.9-3.2-5.2-7-6.9-11.5c-1.7-4.4-2.5-9.3-2.5-14.5
			c0-5.4,0.9-10.3,2.5-14.6c1.7-4.3,4-8,7-11c2.9-3,6.5-5.4,10.6-7.2S1215.8,116.9,1220.8,116.9z" />
		</g>
		<g>
			<path class="st1" d="M1426.4,112.5c-3.6-7.6-8.8-13.8-15.3-18.5c-6.4-4.5-14-7.9-22.7-10c-8.5-2-17.9-3-28.1-3
			c-8.5,0-15.6,0.5-21.2,1.6c-5.9,1.1-10.6,2.6-14.3,4.7c-4,2.2-6.9,4.9-8.6,8c-1.7,3-2.5,6.1-2.5,9.3c0,4.4,1.2,8.3,3.6,11.5
			c2,2.7,3.6,4.5,5,5.6l3.2,2.6l3.2-2.6c0.6-0.5,2.9-2,10-4.7c5.2-2,12.3-2.9,21.2-2.9c5.4,0,10.3,0.4,14.7,1.2
			c4,0.7,7.4,2,10.2,3.8c2.6,1.7,4.6,4,6.2,7.1c0.9,1.9,1.6,4.2,2,6.8c-2-0.2-4.4-0.4-7.1-0.6c-5.8-0.4-12-0.6-18.4-0.6
			c-11.4,0-21.2,0.9-29.2,2.8c-8.3,1.9-15.2,4.8-20.6,8.8c-5.5,4.1-9.5,9.2-12,15.2c-2.3,5.8-3.5,12.5-3.5,20c0,5.7,1,11.4,2.9,16.8
			c2.1,5.8,5.9,11,11.4,15.3c5.3,4.2,12.5,7.5,21.3,9.9c8.7,2.4,19.9,3.6,33.3,3.6c6.5,0,13-0.2,19.1-0.5c6.1-0.3,11.6-0.7,16.5-1.1
			c4.8-0.4,9.1-0.8,12.8-1.3c3.8-0.4,6.5-0.8,8.3-1.2l4-0.8v-79.6C1431.8,129.1,1430,120,1426.4,112.5z M1393.4,163.5v28.2
			c-1.2,0.2-2.7,0.4-4.7,0.6c-4.3,0.6-10.2,0.8-17.7,0.8c-6.5,0-12-0.4-16.2-1.3c-3.9-0.8-7-1.9-9.2-3.3c-1.9-1.2-3.1-2.6-3.8-4.2
			c-0.8-1.9-1.2-3.9-1.2-6.3c0-5.7,1.8-9.5,5.5-12c4.3-2.9,11.8-4.3,22.1-4.3c8.9,0,15.6,0.3,20,1
			C1390.3,163.1,1392,163.3,1393.4,163.5z" />
		</g>
		<g>
			<path class="st1" d="M1550.2,103.9c0,3.8-1,7.4-3.1,10.8c-2.1,3.5-3.7,5.5-5.4,6.6l-2.4,1.6l-2.5-1.2c-2.6-1.2-5.9-2.4-9.8-3.5
			c-3.7-1-8.1-1.6-13-1.6c-16.8,0-24.4,8.1-24.4,26.1v77.8h-38.6v-86.1c0-16.8,5.3-30.1,15.9-39.5c10.3-9.2,24.7-13.9,42.6-13.9
			c11.2,0,20.5,1.6,27.7,4.8C1548,90.6,1550.2,98.3,1550.2,103.9z" />
		</g>
		<g>
			<path class="st1" d="M1674.1,208.1l-3.9,2.6c-2.2,1.5-4.9,3-8,4.5c-3.1,1.5-6.7,2.9-10.6,4.3c-4,1.3-8.5,2.4-13.5,3.3
			c-5,0.9-10.8,1.3-17.1,1.3c-9.9,0-19.3-1.5-28-4.5c-8.8-3.1-16.7-7.7-23.3-13.7c-6.7-6.1-12-13.6-15.9-22.4
			c-3.9-8.8-5.8-19-5.8-30.4c0-11.3,1.9-21.6,5.7-30.5c3.8-9,9.1-16.7,15.8-22.8c6.7-6.1,14.6-10.8,23.7-14c9-3.1,18.7-4.7,28.9-4.7
			c8.5,0,16,0.7,22.1,2.1c6.3,1.5,11.3,3.3,15.4,5.5c4.3,2.4,7.5,5.2,9.6,8.5c2.1,3.3,3.2,6.8,3.2,10.2c0,4.5-1.5,8.6-4.5,12.4
			c-2.5,3.2-4.9,5.6-7.3,7.4l-3.4,2.5l-3.1-2.9c-2.6-2.5-6.5-4.9-11.7-7.2c-5-2.3-11.4-3.4-19-3.4c-5.1,0-9.9,0.8-14.3,2.2
			c-4.2,1.4-7.9,3.6-10.9,6.5c-3.1,2.9-5.5,6.7-7.4,11.1c-1.8,4.5-2.8,10-2.8,16.3c0,6.7,1,12.3,2.9,16.9c1.9,4.5,4.5,8.1,7.7,11
			c3.3,2.9,7.2,5,11.5,6.4c4.5,1.4,9.5,2.2,14.8,2.2c7.6,0,13.7-1,18.2-3c6-2.7,8.6-4.1,9.8-4.8l4.4-2.8L1674.1,208.1z" />
		</g>
		<g>
			<path class="st1" d="M1781.6,181.7c-1,0.5-2.5,1.2-4.6,2.2c-1.9,0.9-4.3,1.9-7,2.8c-2.7,0.9-5.8,1.7-9.2,2.3
			c-3.4,0.6-7.1,0.9-11.1,0.9c-11.7,0-20.7-2.3-26.7-6.9c-4.2-3.2-7.1-6.9-8.9-11.4c0.9,0,1.8,0.1,2.7,0.1c2.9,0.1,6,0.1,9.5,0.1
			c14.7,0,27-1,36.6-3c9.9-2,18-5,24-8.7c6.3-3.9,10.9-8.8,13.5-14.5c2.5-5.4,3.7-11.5,3.7-18c0-6.4-1.3-12.5-4-18.2
			c-2.7-5.7-6.6-10.7-11.8-14.9c-5.1-4.1-11.3-7.5-18.5-9.9c-7.2-2.4-15.5-3.7-24.7-3.7c-10.5,0-20.2,1.8-29.1,5.2
			c-8.9,3.5-16.7,8.5-23.2,14.9c-6.6,6.4-11.8,14.1-15.4,23c-3.7,8.9-5.5,18.7-5.5,29.4c0,11.2,1.9,21.3,5.7,30
			c3.8,8.7,9,16.2,15.6,22.3c6.6,6,14.3,10.7,23.1,13.7c8.6,3,18,4.5,27.9,4.5c7,0,13.5-0.5,19.3-1.6c5.8-1,11-2.3,15.4-3.7
			c4.5-1.4,8.4-3,11.5-4.6c3-1.6,5.1-2.8,6.6-3.7l3.9-2.5l-15-28.5L1781.6,181.7z M1744.7,113.1c6.5,0,12,1.3,16.3,4
			c3.6,2.2,5.3,5.4,5.3,10.1c0,1.8-0.4,3.6-1.1,5.3c-0.6,1.3-2,2.6-4.2,3.9c-2.7,1.6-6.7,2.9-11.8,3.9c-5.3,1.1-12.5,1.7-21.3,1.7
			h-10.5c-1.8,0-3.7,0-5.5-0.1c0.4-2.6,1.1-5.2,2.1-7.7c1.5-4.1,3.7-7.8,6.5-10.9c2.7-3.1,6.1-5.6,10.1-7.4
			C1734.5,114.1,1739.3,113.1,1744.7,113.1z" />
		</g>
		<g>
			<path class="st1" d="M1858.4,50.4c0,6.2-2.2,11.5-6.5,15.8c-4.3,4.3-9.6,6.5-15.8,6.5c-6.2,0-11.5-2.2-15.8-6.5
			c-4.3-4.3-6.5-9.6-6.5-15.8c0-6.2,2.2-11.5,6.5-15.8c4.3-4.3,9.6-6.5,15.8-6.5s11.5,2.2,15.8,6.5
			C1856.2,38.9,1858.4,44.2,1858.4,50.4z" />
			<path class="st1" d="M1855.4,88.9v131.6h-38.6V102.9c0-6.3,2-11,5.9-14.1c3.6-2.8,8.4-4.2,14.4-4.2c3.5,0,6.8,0.5,9.7,1.3
			c2.6,0.8,4.4,1.4,5.4,1.8L1855.4,88.9z" />
		</g>
		<g>
			<path class="st1" d="M1975.1,103.9c0,3.8-1,7.4-3.1,10.8c-2.1,3.5-3.7,5.5-5.4,6.6l-2.3,1.6l-2.5-1.2c-2.6-1.2-5.9-2.4-9.8-3.5
			c-3.7-1-8.1-1.6-12.9-1.6c-16.8,0-24.4,8.1-24.4,26.1v77.8H1876v-86.1c0-16.8,5.3-30.1,15.8-39.5c10.4-9.2,24.7-13.9,42.6-13.9
			c11.2,0,20.5,1.6,27.8,4.8C1972.8,90.6,1975.1,98.3,1975.1,103.9z" />
		</g>
		<g>
			<path class="st1" d="M2115.2,124.1c-3.8-8.7-9-16.3-15.7-22.7c-6.6-6.4-14.6-11.4-23.6-15c-9-3.6-18.8-5.4-29.1-5.4
			c-10.3,0-20.1,1.8-29.1,5.4c-9,3.6-17,8.6-23.6,15c-6.7,6.4-11.9,14-15.7,22.7c-3.8,8.7-5.7,18.3-5.7,28.5c0,10,1.9,19.5,5.7,28.2
			c3.8,8.7,9,16.3,15.7,22.7c6.6,6.3,14.5,11.4,23.5,15.1c9,3.7,18.8,5.5,29.1,5.5c10.3,0,20.1-1.9,29.1-5.5
			c9-3.6,16.9-8.7,23.5-15.1c6.6-6.4,11.9-14,15.7-22.7c3.8-8.7,5.7-18.2,5.7-28.2C2120.9,142.4,2119,132.8,2115.2,124.1z
			 M2046.9,188.7c-5.1,0-9.8-0.9-13.9-2.7c-4.1-1.8-7.7-4.3-10.6-7.6c-3-3.3-5.4-7.2-7.1-11.5c-1.7-4.3-2.5-9.2-2.5-14.4
			c0-5.2,0.9-10.2,2.6-14.7c1.7-4.5,4-8.3,7-11.5c2.9-3.1,6.5-5.7,10.6-7.5c4.1-1.8,8.8-2.7,13.9-2.7c5,0,9.6,0.9,13.8,2.7
			c4.2,1.8,7.8,4.3,10.8,7.5c3,3.2,5.3,7.1,7,11.5c1.7,4.5,2.6,9.5,2.6,14.7c0,5.2-0.9,10-2.5,14.4c-1.7,4.3-4.1,8.2-7.1,11.5
			c-2.9,3.2-6.5,5.8-10.7,7.6C2056.5,187.8,2051.8,188.7,2046.9,188.7z" />
		</g>
	</g>
</svg>